<?xml version="1.0" standalone="no"?>
<!DOCTYPE svg PUBLIC "-//W3C//DTD SVG 20010904//EN"
 "http://www.w3.org/TR/2001/REC-SVG-20010904/DTD/svg10.dtd">
<svg version="1.0" xmlns="http://www.w3.org/2000/svg"
 width="1280.000000pt" height="1280.000000pt" viewBox="0 0 1280.000000 1280.000000"
 preserveAspectRatio="xMidYMid meet">
<metadata>
Created by potrace 1.16, written by Peter Selinger 2001-2019
</metadata>
<g transform="translate(0.000000,1280.000000) scale(0.100000,-0.100000)"
fill="#000000" stroke="none">
<path d="M5103 12519 c-832 -53 -1662 -315 -2362 -747 -1738 -1070 -2681
-3030 -2431 -5051 72 -579 229 -1103 490 -1636 528 -1078 1418 -1941 2510
-2433 493 -222 997 -359 1577 -429 216 -26 894 -26 1108 0 631 77 1166 231
1700 491 322 156 637 351 890 549 l120 94 1500 -1497 c1476 -1474 1501 -1498
1575 -1533 95 -45 180 -62 273 -54 139 12 246 65 341 168 144 155 176 371 84
569 -28 61 -122 157 -1536 1572 l-1505 1506 69 89 c494 630 836 1368 993 2144
31 148 60 340 83 534 18 151 18 848 0 1010 -53 481 -145 879 -299 1295 -380
1024 -1084 1910 -1998 2515 -935 619 -2054 916 -3182 844z m568 -1034 c233 -8
522 -52 786 -119 979 -248 1851 -869 2420 -1721 688 -1032 874 -2315 506
-3505 -329 -1065 -1102 -1972 -2109 -2473 -1093 -545 -2363 -578 -3483 -91
-732 319 -1377 864 -1815 1536 -344 528 -559 1118 -643 1763 -23 177 -26 768
-5 935 86 681 292 1254 649 1804 311 478 731 898 1209 1209 539 350 1110 559
1759 642 135 18 439 34 535 28 30 -1 116 -5 191 -8z"/>
</g>
</svg>
