<?xml version="1.0" encoding="utf-8"?>
<!-- Generator: Adobe Illustrator 24.1.1, SVG Export Plug-In . SVG Version: 6.00 Build 0)  -->
<svg version="1.1" id="Layer_1" xmlns="http://www.w3.org/2000/svg" xmlns:xlink="http://www.w3.org/1999/xlink" x="0px" y="0px"
	 viewBox="0 0 391.9 404.9" style="enable-background:new 0 0 391.9 404.9;" xml:space="preserve">
<style type="text/css">
	.st0{fill:#F1F1F1;}
	.st1{fill:#7FE6FE;}
	.st2{fill:#F0F0F0;}
	.st3{fill:#7EE6FE;}
	.st4{fill:#80605B;}
	.st5{fill:#815F5A;}
	.st6{fill:#7CE5F8;}
	.st7{fill:#825F5A;}
	.st8{fill:#0C2978;}
	.st9{fill:#F98D1C;}
	.st10{fill:#50CEE9;}
	.st11{fill:#664946;}
	.st12{fill:#0F2A79;}
	.st13{fill:#0B267A;}
	.st14{fill:#0E2875;}
	.st15{fill:#4FCEE9;}
	.st16{fill:#FAFCF9;}
	.st17{fill:#0E2979;}
	.st18{fill:#F4D8A9;}
	.st19{fill:#0F2677;}
	.st20{fill:#FBFBF9;}
	.st21{fill:#DFD4B8;}
	.st22{fill:#0E2B79;}
	.st23{fill:#000858;}
	.st24{fill:#F5FAFA;}
	.st25{fill:#F6FBFA;}
	.st26{fill:#030A5E;}
	.st27{fill:#835F5A;}
	.st28{fill:#6F524E;}
	.st29{fill:#F2891C;}
	.st30{fill:#0C287A;}
	.st31{fill:#FEE1AF;}
	.st32{fill:#F4D8AA;}
	.st33{fill:#60E6FA;}
	.st34{fill:#EEA85C;}
	.st35{fill:#D58A38;}
	.st36{fill:#D4853C;}
	.st37{fill:#FAFBF9;}
	.st38{fill:#E2B07D;}
	.st39{fill:#F5E2B9;}
	.st40{fill:#F5E0C9;}
	.st41{fill:#FBE9C8;}
	.st42{fill:#F7D6A6;}
	.st43{fill:#F9E8C7;}
</style>
<g>
	<path class="st0" d="M0,245.89c0-29.32,0-58.64,0-87.96c1.67-9.18,4.63-17.97,8.04-26.63c7.01-17.76,16.4-34.11,27.92-49.39
		c14.66-19.45,32.58-35.03,53.12-47.84c23.38-14.58,48.78-23.42,76-27.46c32.9-4.89,64.67-0.3,95.76,10.69
		c2.03,0.72,4.17,1.34,5.26,3.49c0.19,2.39-1.48,3.97-2.66,5.68c-5.71,8.29-9.54,17.3-10.95,27.31c-0.36,2.58-0.39,5.32-2.47,7.35
		c-2.35,0.53-3.67-1.21-5.14-2.46c-26.2-22.26-66.13-25.37-96.65-7.57c-19.05,11.11-29.39,28.31-31.84,50.2
		c-0.26,2.33-0.88,4.56-1.2,6.86c-0.33,1.49-1.24,2.66-2.14,3.84c-5.93,7.75-6.33,15.89-1.71,24.37c0.63,1.15,1.33,2.27,1.67,3.56
		c0.58,6.5-1.89,12.38-3.86,18.34c-2.41,7.28-5.95,14.09-9.78,20.66c-9.58,16.43-8.25,33.28-2.82,50.48
		c1.55,4.91,4.87,9.05,5.86,14.17c-2.27,5.39-1.75,11.07-1.86,16.7c-0.12,6.46,0.61,12.96-0.8,19.37
		c-3.55,18.53-6.43,37.18-9.38,55.82c-0.7,4.45,0.27,8.12,3.27,11.45c2.1,2.33,4.35,4.56,5.98,7.29c0.69,2.27,2.49,4.35,1.22,6.97
		c-1.48,1.04-3.05,0.99-4.66,0.39c-2.66-2.59-6.08-2.74-9.34-2.25c-10.45,1.57-17.8-3.34-25.22-10.01
		c-11.81-10.62-22.38-22.27-31.48-35.15c-8.92-12.62-15.83-26.46-21.79-40.76C4.65,264.49,2.29,255.21,0,245.89z"/>
	<path class="st1" d="M337.82,0c2.12,2.81,5.66,3.06,8.49,4.53c12.45,6.45,21.66,16.14,29.02,27.81c0.68,1.09,0.91,2.46,1.34,3.7
		c1.79,8.67,1.96,17.33,0.88,26.15c-1.15,9.38-4.87,17.69-9.96,25.25c-13.23,19.66-31.95,30.26-55.71,30.73
		c-13.51,0.27-26.48-2.87-37.71-10.88c-3.65-2.6-6.01-2.17-8.98,0.82c-7.96,8.02-17.54,14.23-25.34,22.44
		c-2.61,1.66-3.8,0.72-3.47-2.13c0.31-2.68,1.84-4.96,3.11-7.28c4.14-7.57,8.2-15.18,12.21-22.82c2.07-3.95,2.89-7.64,0.78-11.78
		c-1.06-2.07-0.83-4.56-1.74-6.72c-0.4-2.14-1.44-4.16-1.32-6.41c-0.2-4.26-2.74-8.58,0.41-12.73c1.7-14.69,6.13-28.29,15.9-39.75
		c2.8-6.67,8.9-9.98,14.39-13.78c5.04-3.49,10.59-6.1,16.74-7.14C310.5,0,324.16,0,337.82,0z"/>
	<path class="st2" d="M173.91,397.82c-1.09-2.32-3.24-1.78-5.19-2.03c-19.96-2.51-39.29-7.18-57.17-17.39c53.49,0,106.99,0,161.31,0
		c-3.58,3.68-8.02,4.7-11.92,6.1c-13.86,4.99-28.1,8.69-42.67,11.15c-2.78,0.47-6.49-1.85-8.39,2.16
		C197.89,397.82,185.9,397.82,173.91,397.82z"/>
	<path class="st3" d="M98.15,279.97c1.69-9.72,0.39-19.52,0.87-29.27c0.14-2.78-0.11-5.73,2.95-7.33c1.14-2.89,3.57-2.74,6.02-2.56
		c2.58,0.89,5.26,0.64,7.92,0.64c49.62,0.01,99.24,0.01,148.86,0.01c1.83,0,3.66-0.04,5.49,0.03c1.65,0.06,3.68-0.14,4.41,1.6
		c0.59,1.4-1.24,2.14-2,3.17c-2.21,3.01-3.08,6.62-4.38,10.03c-8.49,22.34-23.21,39.77-42.22,53.86
		c-12.95,9.6-27.23,16.78-42.43,21.85c-13.08,4.37-26.5,7.6-40.24,9.59c-13.05,1.89-26.1,2.72-39.24,2.88
		c-2.3,0.03-4.77,0.4-6.16-2.21c-0.76-1.71-0.84-3.54-0.81-5.36c0.29-18.17-0.99-36.37,1.22-54.5
		C98.53,281.59,98.46,280.76,98.15,279.97z"/>
	<path class="st4" d="M108.06,242.19c-2.18-0.42-4.24-0.15-6.08,1.18c-12.01-20.53-16.25-41.66-4.54-63.83
		c6.62-12.52,13.03-25.07,14.78-39.4c3.68-1.3,4.21,1.9,5.59,3.9c0.83,8.11,2.24,15.99,7.34,22.77
		c8.31,11.04,19.79,15.99,33.07,17.64c2.37,0.29,5.06-0.65,6.87,1.78c-0.31,2.53-2.62,0.93-3.65,1.71
		c4.38-0.64,7.58,2.58,11.43,3.79c0.47,0.15,0.93,0.35,1.38,0.55c3.33,0.77,4.62,2.85,4.22,6.22c-0.31,2.63,0.16,5.32-0.63,7.92
		c-3.75,5.62-9.71,8.49-15.08,12.1c-10.77,2.26-20.99,6.31-31.43,9.63c-1.27,0.4-2.49,1-3.8,1.19c-7.99,1.17-13.81,5.28-17.27,12.63
		C109.57,242.43,108.82,242.4,108.06,242.19z"/>
	<path class="st5" d="M288.83,360.66c14.63,0.05,29.27,0.17,43.9,0.12c3.5-0.01,6.85,0.14,8.42,3.78c1.67,3.86,1.1,7.49-2.35,10.32
		c-0.63,0.23-1.26,0.25-1.9,0.06c-2.99-0.2-5.99-0.1-8.98-0.1c-91.53-0.01-183.06-0.01-274.59,0.02c-3.17,0-6.3-0.14-9.36-1.03
		c-3.27-2.75-2.75-6.26-1.41-9.51c1.32-3.18,4.4-3.52,7.58-3.52c15.26,0.02,30.52-0.07,45.78-0.12c1.64-0.03,3.27-0.07,4.91-0.1
		c1.78-1.6,4-1.51,6.15-1.51c58.1,0,116.2-0.15,174.29,0.04C283.82,359.5,286.53,359.12,288.83,360.66z"/>
	<path class="st6" d="M281.92,360.56c-22.45,0.08-44.89,0.19-67.34,0.22c-35.09,0.05-70.18,0.04-105.27,0.03
		c-2.82,0-5.64-0.16-8.46-0.25c-1.14-1.76-1.94-3.61-1.72-5.77c0.69-2.83,2.92-3.22,5.3-3.32c3.26-0.14,6.53,0.03,9.79-0.14
		c0.88-0.15,1.74-0.37,2.64-0.37c10.81,0.4,21.63,0.25,32.44-0.01c1.3,0.34,2.63,0.39,3.96,0.39c25.46,0,50.92,0,76.38,0
		c1.33,0,2.66-0.03,3.96-0.4c11.33,0.27,22.67,0.37,34-0.05c3.62,0.79,7.29,0.35,10.94,0.45c1.83,0.05,3.68-0.11,5.3,1.03
		C286.12,357.17,285.82,358.45,281.92,360.56z"/>
	<path class="st7" d="M249.81,60.68c0.28,4.42,0.55,8.84,0.83,13.26c-2.91-0.02-4.26-2.41-5.9-4.14
		c-12.25-12.98-27.58-18.83-45.06-20.58c-15-1.5-29.45-0.43-43.27,5.91c-15.66,7.17-25.9,19.34-31.88,35.22
		c-1.89,5.01-4.46,10.09-2.49,15.79c-2.46,1.29-4.73,3.34-7.85,1.89c0.68-15.35,5.11-29.32,14.48-41.73
		c8.55-11.33,19.86-18.79,33-23.13c23.94-7.91,47.53-6.67,70.25,4.89C238.48,51.39,244.14,56.05,249.81,60.68z"/>
	<path class="st8" d="M114.98,352.74c-3.57-0.02-7.14,0.04-10.7-0.08c-2.1-0.07-3.81,0.53-5.16,2.13c-1.99-1.96-4.03-3.89-5.97-5.9
		c-3.95-4.09-5.33-8.71-4.26-14.54c3.32-18.09,6.21-36.25,9.27-54.39c1.64,2.24,0.82,4.81,0.83,7.22
		c0.11,18.58,0.13,37.15,0.18,55.73c1.08,2.45,2.99,4.29,4.62,6.33c1.66,1.95,3.92,1,5.93,1.19c1.75,0.17,3.58-0.14,5.14,1.01
		c0.25,0.26,0.35,0.54,0.31,0.83C115.11,352.59,115.06,352.74,114.98,352.74z"/>
	<path class="st9" d="M114.19,108.01c2.59-0.28,4.61-2.8,7.5-1.88c1.44,0.9,1.8,2.4,1.81,3.88c0.08,10.92,0.78,21.84-0.38,32.75
		c-0.41,1.22-1.15,2.13-2.4,2.57c-1.59,0.36-2.77-0.42-3.88-1.41c-1.4-1.44-2.68-3.02-4.63-3.78
		C104.26,128.62,104.64,122.48,114.19,108.01z"/>
	<path class="st0" d="M281.92,360.56c3.04-2.03,2.02-4.92,1.63-7.68c-0.21-3.14,2.31-4.64,4.09-6.48c4.09-4.23,5.63-8.77,4.56-14.89
		c-2.89-16.5-5.17-33.11-7.7-49.68c-0.23-1.49-0.8-2.88-1.02-4.36c-0.53-6.15-0.28-12.31-0.23-18.46c0.04-5.19-0.19-10.3-1.95-15.24
		c-0.1-2.67,1.6-4.63,2.67-6.86c7.82-16.37,10.45-33.22,4.12-50.7c-2.21-6.1-6.16-11.39-8.92-17.26
		c-3.55-7.55-6.61-15.25-8.05-23.52c-0.31-1.8-0.73-3.59-0.35-5.44c3.71-6.71,5.74-13.7,3.58-21.41c-0.18-0.63,0.1-1.3,0.48-1.87
		c2.61-1.2,4.56,0.41,6.37,1.74c20.48,15.07,56.63,13.74,77.3-4.59c1.38-1.22,2.74-3.16,5.15-1.97c4.04,0.35,4.03,3.48,5.04,6.46
		c2.29,6.75,5.6,13.12,7.85,19.92c4.47,13.56,8.21,27.26,9.27,41.58c0.6,8.09,2.16,16.2,1.8,24.24
		c-0.73,16.17-2.56,32.25-6.93,47.98c-4.51,16.26-10.7,31.83-19.13,46.33c-7.4,12.73-15.51,25.13-26.27,35.48
		c-7.28,6.99-14.35,14.19-21.77,21.03c-1.96,1.8-4.56,3.12-7.66,2.97c-4.65-0.22-9.33-0.13-13.99-0.02
		c-1.63,0.04-4.21-0.51-3.03,2.78C286.53,360.63,284.23,360.59,281.92,360.56z"/>
	<path class="st10" d="M363.65,111.91c-7.72,5.91-15.38,11.89-24.89,14.84c-19.64,6.09-38.51,4.94-56.48-5.64
		c-2.34-1.38-4.09-4.01-7.3-3.68c-3.71,2.95-8.45,3.64-12.56,5.74c-3.32,0.99-6.46,2.41-9.61,3.82c-2.81,1.35-5.73,2.42-8.7,3.35
		c-1.72,0.54-3.46,1.2-5.09-0.26c2.26-5.15,7.52-7.27,11.29-10.87c5.13-4.91,10.99-9.07,15.97-14.19c2.25-2.31,4.08-2.52,6.83-0.4
		c8.87,6.84,18.99,10.27,30.21,11.48c11.34,1.22,22.27,0.12,32.61-4.19c14.97-6.25,26.25-16.74,33.93-31.29
		c6.97-13.2,8.27-26.97,6.02-41.38c-0.18-1.14-0.29-2.35,0.79-3.21c11.28,26.04,7.44,49.97-10.08,71.98
		C365.58,109.3,364.63,110.62,363.65,111.91z"/>
	<path class="st11" d="M43.97,373.82c0.12-0.66,0.4-1.59,1.11-1.24c4.29,2.13,8.85,1.2,13.28,1.2c91.07,0.06,182.13,0.04,273.2,0.08
		c2.08,0,4.35-0.75,6.24,0.88c-1.5,1.07-3.2,0.55-4.81,0.55c-14.53,0.05-29.06,0.02-43.58,0.04c-1.63,0-3.31-0.32-4.89,0.37
		c-0.82-0.09-1.65-0.25-2.47-0.25c-61.76-0.01-123.53-0.02-185.29-0.01c-0.82,0-1.65,0.17-2.47,0.26
		c-14.46-0.88-28.93-0.12-43.4-0.4c-1.97-0.04-3.99,0.46-5.91-0.44C44.65,374.51,44.31,374.17,43.97,373.82z"/>
	<path class="st2" d="M284.52,375.71c12.12-0.97,24.26-0.13,36.38-0.44c5.63-0.15,11.29,0.53,16.9-0.52
		c0.34,0.04,0.67,0.09,1.01,0.13c-0.69,0.86-1.65,1.03-2.67,1.02C318.93,375.83,301.72,375.77,284.52,375.71z"/>
	<path class="st2" d="M44.98,374.86c14.29,0.91,28.59,0.17,42.88,0.43c2.14,0.04,4.28,0.27,6.42,0.41
		c-15.38,0.07-30.76,0.14-46.15,0.21C46.97,375.92,45.8,375.91,44.98,374.86z"/>
	<path class="st4" d="M239.03,130.09c4.99-0.23,9.03-3.48,13.82-4.33c4.64,4.73,2.52,10.23,1.8,15.57c-0.29,0.54-0.75,0.88-1.36,1
		c-6.96-1.48-14.18-1.18-21.09-3.04c-4.79-1.03-9.53-2.26-14.03-4.26c-0.95-0.35-1.87-0.77-2.8-1.17
		c-16.62-6.92-28.91-18.75-38.28-33.71c-12.98,9.65-27.7,14.52-43.84,15.31c-1.3,0.06-2.67,0.38-3.79-0.67
		c-1.27-1.94-1.04-4.16-1.01-6.29c0.05-3.14-0.47-5.74-3.53-7.62c-3.62-2.22-1.97-5.74-0.94-8.55c4.12-11.21,10.13-21.2,19.41-29.01
		c11.97-10.08,26.18-13.99,41.37-14.73c16.17-0.78,31.76,1.92,46.04,10.05c9.06,5.16,16.16,12.37,21.29,21.48
		c0.96,2.99,1.69,6.09,2.94,8.95c0.97,2.22,0.93,4.01-0.2,6.11c-5.49,10.24-10.95,20.5-16.19,30.86
		C238.18,126.95,235.04,129.18,239.03,130.09z"/>
	<path class="st12" d="M316.78,74.29c-7.95,0.12-9.1-1.84-5.48-8.8c1.78-3.42,4.44-6.21,6.82-9.2c1.75-2.19,2.43-4.85,0.95-7.46
		c-1.25-2.21-3.5-2.31-5.74-1.9c-2.24,0.41-3.78,1.96-3.89,4.03c-0.2,3.68-2.42,3.78-5.09,3.58c-0.33-0.02-0.67,0-1,0
		c-9.58,0.04-10.71-1.79-6.67-10.82c5.67-12.71,27.46-15.97,36.66-5.5c4.48,5.1,4.7,13.34,0.7,19.52
		c-3.49,5.39-9.21,9.06-11.27,15.67C322.05,75.72,318.54,73.67,316.78,74.29z"/>
	<path class="st13" d="M252.09,80.12c-0.93,2.18-1.32,0.32-1.69-0.28c-9.78-16.01-24.4-24.41-42.48-28.13
		c-8.61-1.77-17.19-2.18-25.75-1.53c-21.6,1.65-39.53,10.19-50.79,29.66c-2.89,5-5.49,10.21-6.98,15.88
		c-0.59,2.24-1.38,4.14,2.26,4.41c2.58,0.19,3.3,2.36,3.3,4.77c0,3.32,0.1,6.65,0.15,9.97c0.9,0.83,1.33,1.93,1.35,3.09
		c0.19,10.18,0.81,20.37-0.36,30.54c-1.57,3.18-4.25,4.2-7.31,2.82c-3.31-1.49-3.57-4.34-2.05-7.44
		c-0.02-12.58-0.04-25.17-0.06-37.75c-1.92-1.4-2.69-2.77-1.98-5.55c4-15.69,11.14-29.36,24.11-39.5c9.86-7.7,21.1-11.8,33.52-13.31
		c9-1.09,17.93-0.99,26.78,0.33c14.83,2.2,28.37,7.54,39.26,18.35c2.46,2.45,4.84,4.98,7.26,7.47
		C251.12,76,251.61,78.06,252.09,80.12z"/>
	<path class="st14" d="M324.65,88.88c-0.05,5.12-3.72,8.76-8.81,8.74c-4.93-0.02-8.6-3.95-8.48-9.08c0.11-4.71,4.02-8.33,8.82-8.17
		C321.15,80.54,324.7,84.1,324.65,88.88z"/>
	<path class="st15" d="M281.83,243.43c2.91,2.01,2.71,5.15,2.75,8.08c0.13,8.79,0.11,17.57,0.16,26.36
		c-0.23,0.88-0.29,1.79-0.37,2.69c-0.15,19.22-0.04,38.45-0.04,57.67c0,3.34-0.19,6.62-1.36,9.78c-4.11,5.6-9.66,3.07-14.85,2.64
		c-2.65-2.53-5.79-3.42-9.46-3.23c-4.27,0.22-8.58,0.23-12.85,0c-4.6-0.25-8.84,0.4-12.51,3.4c-1.26,0.58-2.6,0.52-3.92,0.52
		c-26.56-0.03-53.12,0.09-79.68-0.05c-3.88-3.74-8.65-4.17-13.72-3.88c-3.47,0.2-6.96,0.21-10.43-0.01
		c-4.12-0.26-7.52,0.58-9.47,4.6c-0.36,0.25-0.73,0.5-1.09,0.75c0.11-0.29,0.1-0.58-0.03-0.87c-1.86-1.65-4.13-0.79-6.22-1.04
		c-1.9-0.23-4.04,0.7-5.63-1.11c-2.3-1.69-4.5-3.44-3.94-6.8c13.7-0.2,27.31-0.84,40.98-2.59c13.89-1.77,27.24-5.39,40.64-8.85
		c7.94-2.05,15.69-5.49,22.96-9.37c14.18-7.59,27.59-16.39,38.72-28.29c12.2-13.04,21.5-27.74,26.87-44.84
		c0.76-2.42,1.08-5.21,4.27-6.14c-15.8,0-31.6,0-47.4,0c-37.27,0.01-74.53,0.02-111.8-0.02c-2.11,0-4.33,0.61-6.33-0.65
		c0.6-0.1,1.2-0.2,1.8-0.3c2.04-1.84,4.57-1.79,7.07-1.79c50.49-0.04,100.98-0.01,151.48-0.03c1.67,0,3.31,0.28,4.97,0.32
		C276.5,240.54,280.22,239.04,281.83,243.43z"/>
	<path class="st16" d="M212.04,296.01c1.23,11.39-9.19,20.67-19.91,20.89c-12.87,0.26-21.31-11-21.18-21.11
		c0.14-10.88,8.84-20.85,21.62-20.59C204.05,275.43,213.31,286.14,212.04,296.01z"/>
	<path class="st17" d="M273.93,241.88c-54.69,0-109.38,0-164.07,0c0.91-5.6,5.45-10.41,10.42-11.93
		c11.67-3.57,23.25-7.43,34.88-11.14c2.45-0.78,4.84-2.23,7.57-1.01c3.39-0.28,6.07,1.47,8.67,3.23
		c5.48,3.72,11.22,7.05,16.57,10.96c1.6,1.17,3.2,2.54,5.37,1.2c0.81-0.43,1.57-0.93,2.29-1.5c8.09-5.65,16-11.6,25.3-15.26
		c3.47-0.57,6.56,0.93,9.68,1.94c9.65,3.12,19.38,5.93,29.14,8.67c3,0.84,6.16,1.56,8.56,3.85
		C270.75,234.26,275.04,236.7,273.93,241.88z"/>
	<path class="st18" d="M195.47,232.93c-0.16,0.73-0.65,0.98-1.34,0.96c-2.14,1.43-4.12,0.56-5.2-1.16
		c-5.07-8.1-8.91-16.8-11.89-25.87c0.04-2.62-0.25-5.29,0.21-7.83c0.68-3.76-1.06-5.37-4.33-6.12c2.65-2.2,6.23-1.35,9.1-2.81
		c0.46-0.19,1.26-0.28,1.33-0.59c1.33-6,6.42-5.33,10.77-6.53c9.87-2.72,19-7.09,26.53-14.28c1.44-1.38,2.79-2.87,4.71-3.64
		c2.2-0.25,3.42-1.42,3.45-3.71c0.3-0.92,0.81-1.67,1.71-2.1c3.51-1.09,4.14,1.64,5.29,4.45c0.74-1.71,0.49-2.96-0.03-4.06
		c-1.61-3.39-0.95-6.5,1.13-9.37c2.15-2.97,1.02-4.48-2.07-5.37c-0.79-0.23-1.57-0.52-2.35-0.82c-1.33-0.51-2.46-1.29-1.96-2.93
		c0.43-1.41,1.62-2.32,3.04-2.04c3.72,0.74,7.59,0.76,11.17,2.09c1.24,0.46,2.32,1.17,3.74,0.92c1.51-0.27,3.09-0.28,3.9,1.37
		c0.94,1.92,0.12,3.48-1.19,4.95c-2.36,2.66-3.94,5.82-4.31,9.3c-0.44,4.13-2.01,4.03-4.41,1.75c-0.11,4.83-0.59,9.45-3.46,13.5
		c-1.34,1.69-3.47,2.85-3.56,5.37c-0.52,1.69-1.63,2.77-3.35,3.19c-4.65,1.08-7.99,4.07-11.01,7.53c-1.77,2.4-4.49,3.16-7.09,4.14
		c-6.92,2.61-7.74,4.1-6.26,11.42c0.19,0.96,0.59,1.88,0.53,2.88C202.53,215.25,198.65,223.91,195.47,232.93z"/>
	<path class="st19" d="M182.72,190.62c-2.84,2.58-6.18,3.02-9.79,2.28c0,0,0.01-0.08,0.01-0.08c-2.85-1.75-5.27-4.05-7.94-6.03
		c-5.23-1.67-10.77-0.98-16.13-2.58c-18.48-5.49-32.25-18.7-32.01-40.29c1.1,0.09,2.3-0.11,3.06,1c1.83,4.25,2.25,8.91,3.95,13.23
		c5.35,13.54,16.54,19.23,29.59,22.57c2.9,0.73,5.93,0.6,8.84,1.22c3,0.64,5.49-0.02,7.65-2.3c1.89-1.99,4.29-3.06,7.1-2.99
		c3.67,0.1,6.42,1.81,7.76,5.18C186.12,185.11,185.91,188.29,182.72,190.62z"/>
	<path class="st20" d="M177.05,206.86c4.93,7.01,7.52,15.18,11.24,22.8c1.22,2.5,2.56,4.68,5.85,4.24
		c-1.64,2.52-3.15,1.64-5.21,0.24c-8.5-5.8-16.95-11.7-26.19-16.33C166.93,213.39,172.49,210.79,177.05,206.86z"/>
	<path class="st21" d="M164.99,186.79c4.79-0.82,5.35,3.95,7.94,6.03c-4.42-0.99-8.14-3.5-13.63-5.74
		C162.21,186.94,163.6,186.87,164.99,186.79z"/>
	<path class="st22" d="M268.13,349.88c4.59-0.65,9.55,1.71,13.79-1.73c1.49-2.86,1.98-5.88,1.96-9.13
		c-0.1-16.96-0.13-33.93,0.04-50.89c0.03-3.1-1.42-6.21-0.02-9.3c0.28-0.32,0.55-0.64,0.83-0.96c3.04,11.59,4.16,23.52,6.09,35.3
		c1,6.06,1.41,12.26,2.88,18.2c1.53,6.2,0.08,11.04-4.37,15.33c-2.03,1.95-3.86,4.11-5.79,6.17c-5.24-0.7-10.62,0.78-15.79-0.96
		C267.24,351.12,267.33,350.43,268.13,349.88z"/>
	<path class="st23" d="M149.18,350.39c5.97-0.1,11.94-0.28,17.91-0.29c22.27-0.04,44.53-0.02,66.8-0.02
		c0.52,0.56,0.62,1.16,0.14,1.81c-0.87,1.13-2.12,0.73-3.22,0.73c-26.54,0.03-53.08,0.04-79.62,0.02c-0.77,0-1.54-0.37-2.31-0.57
		C148.52,351.41,148.63,350.86,149.18,350.39z"/>
	<path class="st24" d="M234.03,351.87c-0.05-0.6-0.1-1.21-0.15-1.81c0.77-2.95,2.56-4.29,5.73-4.24c7.78,0.13,15.57,0.14,23.35-0.02
		c3.06-0.06,4.66,1.18,5.17,4.07c-0.13,0.68-0.25,1.35-0.38,2.03c-8.78,1.8-17.66,0.42-26.49,0.8
		C238.84,352.81,236.32,353.19,234.03,351.87z"/>
	<path class="st25" d="M149.18,350.39c-0.1,0.56-0.21,1.11-0.31,1.67c-10.94,1.1-21.87,1.19-32.8-0.06
		c-0.89-4.54,0.95-6.33,5.57-6.18c7.25,0.22,14.52,0.13,21.77,0.02C146.71,345.78,148.85,346.85,149.18,350.39z"/>
	<path class="st26" d="M103.11,349.72c3.12,0.11,6.24,0.21,9.37,0.33c1.23,0.05,2.87-0.44,2.48,1.82
		c-3.46-0.03-6.92-0.01-10.37-0.13C103.48,351.7,101.34,352.02,103.11,349.72z"/>
	<path class="st27" d="M152.68,181.85c-20.12-4.37-32.28-16.92-32.76-36.92c0.61-0.35,1.22-0.69,1.83-1.03
		c0.44,7.22,2.05,8.19,8.27,4.99c2.01-0.06,2.32,1.67,2.84,2.94c4.24,10.41,10.68,19.29,18.6,27.18
		C152.19,179.73,153.44,180.4,152.68,181.85z"/>
	<path class="st28" d="M273.93,241.88c-1.11-3.87-3.88-6.73-6.07-9.94c1.05-5.54,3.95-10.4,5.32-15.95
		c3.84-15.67,2.34-30.66-3.13-45.53c-2.53-6.87-5.01-13.75-6.61-20.92c-0.5-2.23-0.81-4.27,1.11-5.98c2.3-1.28,3.62-4.51,7.05-3.56
		c1.89,13.34,6.87,25.6,13.65,37.09c11.8,20,9.46,39.92,0.35,59.93c-1.02,2.24-2.49,4.27-3.76,6.4
		C279.53,241.22,276.59,242.26,273.93,241.88z"/>
	<path class="st29" d="M271.59,140.01c-1.93,1.34-3.86,2.69-5.8,4.03c-1.53,0.51-3.07,1.15-4.47-0.31
		c-1.66-7.27-2.48-14.52,0.55-21.67c4.24-1.92,8.2-4.61,13.11-4.63C278.55,125.66,276.62,133.07,271.59,140.01z"/>
	<path class="st30" d="M261.87,122.06c0.03,7.28,0.07,14.56,0.1,21.85c1.47,2.55,0.96,4.8-1.18,6.65c-1.48,1.29-3.27,1.49-5.13,0.81
		c-1.93-0.7-3.02-2.04-2.86-4.13c0.14-1.78-0.28-3.68,0.88-5.3c-0.38-5.39,0.87-10.86-0.83-16.17
		C255.61,123.92,258.67,122.83,261.87,122.06z"/>
	<path class="st31" d="M152.68,181.85c-10.59-8.9-17.52-20.32-22.66-32.97c0.03-11.33,0.06-22.67,0.09-34
		c11.22-1.35,22.37-2.89,32.73-7.85c4.05-1.94,8.02-4.02,11.59-6.74c2.01-1.53,3.33-1.94,4.93,0.7
		c8.79,14.48,21.17,24.92,36.54,31.91c-0.86,3.39-2.94,1.52-4.53,0.95c-8.48-3.05-14.98-8.9-21.21-15.13
		c-2.75-2.75-5.47-5.51-6.93-8.02c0.48,1.79,2.79,3.58,4.59,5.66c10.63,12.22,24.34,19.67,39.32,25.11
		c2.94,1.07,5.83,2.28,8.72,3.47c2.44,1.01,3.4,2.63,1.69,5.05c-2.3,3.27-2.01,8.28-6.68,9.96c-0.77,0.45-0.98,1.18-1,2
		c-0.82,1.84-2.16,3.17-4,4c-6.33,6.43-13.64,11.34-21.88,15.07c-4.25,1.92-8.46,3.51-13.1,3.95c-2.73,0.26-5.53,0.27-5.4,4.34
		c0.03,0.83-0.54,3.63-2.78,1.34c0.43-2.35,2.48-4.28,1.52-7.03c-1.07-3.07-2.95-5.19-6.15-5.79c-3.2-0.61-6.28,0.34-7.69,3.23
		c-1.44,2.94-3.4,3.14-6.01,2.72C160.49,183.11,156.58,182.48,152.68,181.85z"/>
	<path class="st4" d="M253.68,141.94c0.05,1.16,0.24,2.33,0.12,3.48c-0.3,2.94,0.66,5.04,3.84,5.05c2.79,0.01,4.06-1.88,4.17-4.58
		c0.03-0.66,0.1-1.32,0.16-1.98c1.27,0.04,2.55,0.09,3.82,0.13c-0.93,1.07-2.2,1.8-1.53,3.76c2.55,7.48,4.7,15.1,7.36,22.54
		c5.39,15.09,7.19,30.17,2.9,46.01c-1.29,4.75-2.69,9.28-4.64,13.74c-0.46,1.04-0.94,1.67-2.01,1.85
		c-4.54-3.38-10.14-3.98-15.31-5.41c-9.4-2.61-18.62-5.74-27.95-8.55c-1.28-0.39-2.53-0.81-3.88-0.36
		c-5.22-2.07-10.06-4.64-13.04-9.71c-2.82-3.71-1.24-7.98-1.45-12c-0.1-1.94,1.9-1.98,3.23-2.5c3.98-1.56,8.2-2.6,11.63-5.36
		c3.11-3.12,6.73-5.48,10.71-7.33c1.41-0.51,2.35-1.52,3-2.82c0.58-1.89,1.86-3.28,3.26-4.59c7.44-9.29,12.92-19.52,15.07-31.36
		C253.31,141.94,253.5,141.94,253.68,141.94z"/>
	<path class="st32" d="M253.13,141.94c0.17,13.21-6.68,23.14-15.11,32.33c-0.54-0.4-0.59-0.85-0.16-1.36
		c1.83-4.73,4.78-9.33,1.77-14.67c-0.18-0.32-0.08-1.01,0.16-1.33c0.48-0.67,1.14-0.26,1.78-0.1c1.81,0.45,2.02,2.55,3.84,3.53
		c-0.17-5.35,1.18-9.91,5.45-13.2c1.03-0.8,1.23-2.06,0.63-3.16c-0.69-1.26-1.92-1.19-3.01-0.52c-1.07,0.65-2.34,2.32-3.25,0.53
		c-2.42-4.76-7.4-1.94-10.73-3.93c-0.97-0.58-2.94-0.09-3.05,1.6c-0.11,1.68,1.68,1.15,2.67,1.48c6.21,2.08,6.63,3.12,3.45,8.47
		c-1.39,2.33-2.62,4.69-0.42,7.3c1.04,1.24,0.69,2.85,0.69,4.33c0.01,1.36-0.09,2.99-1.7,3.17c-2.09,0.24-2.27-1.58-2.24-3.09
		c0.05-2.16-0.52-3.6-3.03-3.4c2.44-2.77,3.94-6.1,5.71-9.28c1.55-2.77,0.82-4.29-1.93-5.32c-6.46-2.43-12.99-4.72-19.35-7.38
		c-8.41-3.52-15.99-8.34-22.21-15.16c-2.46-2.7-5.12-5.22-7.69-7.82c-1.63-1.64-3.28-3.28-3.39-6.95c5,6.52,10.06,11.72,15.71,16.37
		c5.01,4.13,10.77,6.72,16.55,9.37c0.34,0.16,1.08-0.55,1.63-0.85c0.68,0.26,1.35,0.51,2.03,0.77c4.05,3.35,8.88,4.14,13.91,4.32
		c6.32,0.79,12.58,2.25,19.01,2C252.31,139.94,252.92,140.65,253.13,141.94z"/>
	<path class="st31" d="M231.85,137.99c-4.95,1.5-11.14-0.43-13.91-4.32C222.58,135.11,227.22,136.55,231.85,137.99z"/>
	<path class="st33" d="M283.91,278.83c1.39,21.4,0.32,42.81,0.55,64.22c0.02,2.06-0.63,3.93-2.53,5.1
		c1.99-21.2,0.4-42.45,0.94-63.67C282.92,282.58,282.17,280.46,283.91,278.83z"/>
	<path class="st34" d="M186.71,306.06c-4.92-2.11-7.49-6.55-6.8-11.77c0.64-4.89,5.34-9.33,10.74-10.15
		c4.48-0.68,9.31,2.19,11.33,6.72c0.79,3.36,0.47,6.73,0.05,10.09c-0.51,2.85-2.3,4.42-5.06,4.99
		C193.56,307.11,190.13,306.73,186.71,306.06z"/>
	<path class="st35" d="M186.71,306.06c3.41-0.78,6.83-1.07,10.26-0.11C193.57,308.62,190.15,308.4,186.71,306.06z"/>
	<path class="st36" d="M202.02,300.96c-0.93-3.36-0.83-6.72-0.05-10.09C204.39,294.22,204.25,297.58,202.02,300.96z"/>
	<path class="st37" d="M207.69,207.9c4.35,3.24,8.69,6.48,13.04,9.71c-8.97,4.19-16.83,10.22-25.25,15.32
		c-0.84-0.22-1.84-0.74-1.42-1.6c3.53-7.29,7.15-14.53,10.81-21.76C205.4,208.51,206.42,207.91,207.69,207.9z"/>
	<path class="st31" d="M231.8,180.71c-3.03,3.23-7,5.09-10.71,7.32C223.57,183.99,226.87,181.17,231.8,180.71z"/>
	<path class="st32" d="M225.88,165.93c0.96-1.7,2.29-3.04,4-4C230.29,165.01,228.96,166.34,225.88,165.93z"/>
	<path class="st31" d="M237.86,172.91c0.05,0.45,0.11,0.91,0.16,1.36c-0.82,1.43-1.78,2.74-3.22,3.62
		C233.47,174.78,236.46,174.33,237.86,172.91z"/>
	<path class="st38" d="M185.85,294.69c0.33-5.6,5.32-3.32,8.09-4.8c1.36,0.94,2.88,1.66,3.95,2.99c0.01,0.64,0.01,1.28,0.02,1.92
		c-0.73,1.16-1.9,1.9-2.81,2.89c-0.49,0-0.98-0.01-1.48-0.01c-1.26-1.76-2.45-1.54-3.6,0.12c-0.44-0.02-0.87-0.03-1.31-0.05
		C187.95,296.56,186.32,296.17,185.85,294.69z"/>
	<path class="st39" d="M192.59,302.39c-1.42,0.18-2.74-0.35-2.38-1.7c0.93-3.41,4.2,0.35,5.89-1.64c0.45-0.53,1.79,0.11,1.63,1.1
		C197.19,303.48,193.95,300.88,192.59,302.39z"/>
	<path class="st40" d="M190.03,297.79c-0.05-1.42-0.77-3.41,1.38-3.6c2.3-0.21,2.48,1.67,2.23,3.48
		C192.43,297.72,191.23,297.76,190.03,297.79z"/>
	<path class="st41" d="M185.85,294.69c2.04,0.01,3.41,0.63,2.87,3.06C186.64,297.78,184.12,298.23,185.85,294.69z"/>
	<path class="st42" d="M197.9,292.88c-2.41,0.46-3.3-1.11-3.95-2.99C196.2,289.64,198.19,289.74,197.9,292.88z"/>
	<path class="st43" d="M195.11,297.69c-0.48-2.34,0.65-3.11,2.81-2.89C198.92,297.64,197.42,298.06,195.11,297.69z"/>
</g>
</svg>
