<?xml version="1.0" standalone="no"?>
<!DOCTYPE svg PUBLIC "-//W3C//DTD SVG 20010904//EN"
 "http://www.w3.org/TR/2001/REC-SVG-20010904/DTD/svg10.dtd">
<svg version="1.0" xmlns="http://www.w3.org/2000/svg"
 width="1280.000000pt" height="1280.000000pt" viewBox="0 0 1280.000000 1280.000000"
 preserveAspectRatio="xMidYMid meet">
<metadata>
Created by potrace 1.16, written by Peter Selinger 2001-2019
</metadata>
<g transform="translate(0.000000,1280.000000) scale(0.100000,-0.100000)"
fill="#000000" stroke="none">
<path d="M273 10785 c-100 -31 -190 -112 -241 -215 -25 -50 -27 -65 -27 -170
0 -107 2 -119 29 -175 38 -77 114 -153 191 -191 l60 -29 6115 0 6115 0 60 29
c77 38 153 114 191 191 27 56 29 68 29 175 0 107 -2 119 -29 175 -38 77 -114
153 -191 191 l-60 29 -6100 2 c-5048 1 -6107 -1 -6142 -12z"/>
<path d="M273 6785 c-100 -31 -190 -112 -241 -215 -25 -50 -27 -65 -27 -170 0
-107 2 -119 29 -175 38 -77 114 -153 191 -191 l60 -29 6115 0 6115 0 60 29
c77 38 153 114 191 191 27 56 29 68 29 175 0 107 -2 119 -29 175 -38 77 -114
153 -191 191 l-60 29 -6100 2 c-5048 1 -6107 -1 -6142 -12z"/>
<path d="M273 2785 c-100 -31 -190 -112 -241 -215 -25 -50 -27 -65 -27 -170 0
-107 2 -119 29 -175 38 -77 114 -153 191 -191 l60 -29 6115 0 6115 0 60 29
c77 38 153 114 191 191 27 56 29 68 29 175 0 107 -2 119 -29 175 -38 77 -114
153 -191 191 l-60 29 -6100 2 c-5048 1 -6107 -1 -6142 -12z"/>
</g>
</svg>
