<?xml version="1.0" standalone="no"?>
<!DOCTYPE svg PUBLIC "-//W3C//DTD SVG 20010904//EN"
 "http://www.w3.org/TR/2001/REC-SVG-20010904/DTD/svg10.dtd">
<svg version="1.0" xmlns="http://www.w3.org/2000/svg"
 width="1280.000000pt" height="1024.000000pt" viewBox="0 0 1280.000000 1024.000000"
 preserveAspectRatio="xMidYMid meet">
<metadata>
Created by potrace 1.16, written by Peter Selinger 2001-2019
</metadata>
<g transform="translate(0.000000,1024.000000) scale(0.100000,-0.100000)"
fill="#000000" stroke="none">
<path d="M3735 8854 c15 -27 42 -67 59 -88 16 -22 41 -60 53 -85 13 -25 30
-57 38 -71 8 -14 20 -38 28 -55 8 -16 29 -56 46 -87 18 -32 45 -94 62 -138 16
-45 38 -93 48 -108 11 -15 32 -67 47 -117 15 -49 33 -103 39 -120 70 -171 126
-600 96 -740 -5 -27 -17 -92 -26 -144 -14 -83 -34 -144 -80 -246 -7 -16 -23
-64 -36 -105 -12 -41 -30 -91 -40 -110 -21 -41 -63 -245 -78 -382 -14 -124
-14 -355 0 -529 11 -152 52 -371 74 -403 9 -11 27 -59 41 -106 31 -103 176
-399 217 -443 16 -18 45 -61 64 -96 18 -35 45 -72 59 -83 14 -11 42 -43 64
-72 80 -107 282 -296 317 -296 5 0 16 -11 23 -24 7 -14 40 -42 74 -62 33 -21
79 -52 101 -69 22 -17 60 -42 85 -55 58 -29 212 -106 272 -136 52 -25 240 -84
270 -84 10 0 18 -4 18 -8 0 -16 101 -42 247 -63 131 -19 177 -21 452 -16 344
5 502 24 596 72 28 13 55 25 62 25 19 0 173 50 223 72 164 73 314 155 377 205
23 18 44 33 47 33 14 0 106 65 111 79 3 9 26 29 51 45 102 64 306 280 406 429
26 39 56 80 66 91 20 22 103 170 139 246 51 108 83 191 103 268 12 45 26 85
31 88 5 3 9 15 9 28 0 12 4 26 9 32 27 28 61 337 61 548 0 219 -34 533 -61
560 -5 6 -9 18 -9 28 0 10 -4 18 -10 18 -5 0 -10 8 -10 17 0 23 -60 235 -70
248 -10 13 -63 153 -85 224 -50 163 -45 498 9 711 55 212 116 394 165 495 16
33 49 102 72 153 23 51 48 97 56 103 7 6 18 29 23 50 6 21 22 51 35 67 14 17
25 34 25 38 0 11 70 125 87 142 8 8 21 28 29 44 l16 31 -117 -7 c-161 -10
-493 -68 -542 -95 -11 -5 -66 -24 -123 -41 -57 -16 -133 -44 -169 -62 -36 -17
-106 -48 -155 -69 -49 -22 -97 -46 -106 -54 -9 -8 -57 -35 -106 -59 -49 -23
-95 -51 -103 -60 -8 -9 -44 -35 -80 -57 -79 -47 -138 -89 -217 -154 -32 -26
-77 -56 -99 -66 -40 -18 -43 -18 -160 7 -293 62 -353 68 -635 68 -282 -1 -280
0 -618 -65 -161 -31 -163 -31 -185 -12 -12 10 -40 31 -62 47 -22 15 -60 43
-85 61 -25 19 -83 60 -130 91 -47 32 -97 68 -111 81 -14 13 -62 41 -108 63
-45 22 -96 51 -114 64 -31 23 -135 68 -189 81 -16 4 -28 10 -28 14 0 22 -234
100 -467 156 -163 39 -243 51 -402 61 l-115 7 29 -49z m1720 -1514 c88 -6 138
-15 188 -34 92 -35 271 -126 276 -140 3 -9 60 -66 104 -104 68 -59 169 -255
198 -385 12 -50 25 -101 30 -112 5 -11 17 -47 25 -80 33 -131 38 -145 45 -145
4 0 12 30 19 68 7 37 23 90 36 119 13 28 24 58 24 66 0 8 11 59 25 113 21 85
46 147 90 222 25 44 108 152 115 152 5 0 33 25 63 55 43 44 79 67 190 120 166
80 211 89 432 83 127 -3 168 -8 200 -22 165 -76 257 -123 300 -156 28 -20 64
-46 80 -56 17 -10 71 -59 120 -110 118 -120 129 -133 149 -171 9 -18 20 -33
24 -33 11 0 89 -138 97 -172 4 -14 15 -34 26 -44 22 -20 61 -137 79 -234 6
-36 17 -76 23 -89 16 -33 17 -552 1 -572 -6 -8 -14 -39 -18 -70 -9 -83 -62
-285 -84 -322 -11 -18 -25 -50 -32 -72 -15 -47 -76 -179 -100 -215 -9 -14 -34
-54 -55 -90 -21 -36 -56 -84 -77 -107 -21 -24 -38 -48 -38 -54 0 -6 -21 -34
-47 -62 -156 -166 -252 -262 -284 -282 -19 -13 -57 -42 -83 -64 -27 -23 -80
-58 -120 -78 -39 -19 -85 -48 -102 -63 -17 -15 -66 -41 -108 -59 -43 -18 -97
-43 -121 -56 -24 -14 -94 -39 -157 -56 -62 -16 -122 -34 -133 -39 -70 -31
-353 -65 -545 -65 -165 0 -389 25 -495 54 -134 38 -284 85 -307 97 -16 8 -42
21 -58 30 -17 8 -63 29 -102 45 -40 16 -84 40 -98 53 -14 13 -52 38 -86 54
-33 17 -106 66 -160 110 -101 80 -284 256 -284 273 0 5 -21 28 -46 51 -40 37
-98 112 -130 169 -6 10 -18 27 -26 36 -9 10 -26 38 -38 63 -12 25 -30 54 -40
65 -10 11 -35 63 -54 115 -20 52 -48 118 -61 145 -14 28 -34 91 -45 140 -12
50 -27 108 -35 130 -31 94 -45 459 -24 656 10 103 74 325 103 359 7 8 30 53
52 100 21 47 54 103 74 126 19 22 54 66 78 96 24 31 61 72 81 91 21 19 47 46
57 59 10 13 39 35 64 50 25 14 54 35 64 47 11 12 25 21 33 21 7 0 13 4 13 9 0
12 182 104 269 137 113 43 166 48 346 34z"/>
<path d="M5297 6953 c-4 -6 13 -29 38 -52 50 -46 60 -80 53 -167 -4 -49 -9
-59 -55 -105 -45 -45 -55 -51 -106 -56 -84 -9 -143 11 -178 60 -16 22 -34 59
-40 81 -21 75 -19 74 -47 39 -118 -139 -144 -385 -60 -555 32 -66 132 -182
178 -208 15 -8 45 -25 67 -37 21 -12 66 -29 98 -39 69 -20 219 -30 249 -16 12
5 50 18 86 30 141 45 250 143 321 287 34 70 34 70 34 215 0 140 -1 147 -28
199 -16 30 -35 61 -43 68 -8 8 -14 19 -14 24 0 32 -172 176 -232 194 -13 4
-33 14 -46 22 -29 18 -266 32 -275 16z"/>
<path d="M7150 6952 c0 -5 15 -19 34 -30 45 -27 64 -58 72 -114 20 -144 -56
-238 -192 -238 -61 0 -94 17 -143 72 -40 44 -45 55 -49 108 -4 58 -5 59 -26
45 -23 -16 -83 -104 -118 -175 -21 -41 -23 -59 -23 -190 0 -138 1 -148 28
-201 15 -31 27 -60 27 -65 0 -19 133 -155 170 -174 21 -11 40 -24 42 -30 2 -6
42 -23 88 -37 110 -34 242 -37 340 -7 198 62 347 226 381 421 14 77 7 188 -15
235 -8 18 -19 49 -25 68 -28 90 -141 205 -256 260 -38 18 -79 38 -90 43 -28
14 -245 22 -245 9z"/>
<path d="M6235 5760 c-27 -22 -72 -51 -98 -65 -26 -14 -64 -41 -85 -59 -20
-18 -52 -41 -69 -50 -18 -9 -33 -18 -33 -21 0 -12 43 -74 55 -79 7 -2 30 -29
49 -58 20 -29 65 -89 101 -133 36 -44 68 -87 72 -95 8 -19 75 -90 85 -90 4 0
8 155 8 345 0 394 5 376 -85 305z"/>
<path d="M3313 2845 c-62 -17 -118 -51 -190 -114 -49 -43 -56 -56 -126 -209
-15 -32 -14 -295 1 -324 6 -13 21 -50 33 -83 17 -45 36 -73 78 -112 91 -86
188 -122 341 -130 86 -4 158 12 270 60 57 25 153 133 189 212 64 139 64 336 1
462 -16 32 -30 63 -30 68 -1 11 -102 98 -140 120 -55 32 -96 47 -149 56 -81
13 -218 10 -278 -6z m278 -65 c47 -24 98 -84 120 -139 12 -31 29 -64 38 -75
24 -28 24 -355 -1 -382 -9 -11 -26 -44 -37 -75 -26 -69 -115 -157 -170 -170
-56 -13 -128 -10 -169 6 -59 25 -149 120 -168 180 -9 27 -21 56 -27 63 -14 18
-13 320 2 335 6 6 11 18 11 26 0 8 15 47 34 86 37 77 96 138 151 155 40 12
185 6 216 -10z"/>
<path d="M4721 2832 c-5 -9 -17 -47 -26 -82 -9 -36 -27 -97 -40 -136 -14 -39
-36 -118 -50 -175 -13 -57 -34 -130 -44 -164 -11 -33 -25 -79 -31 -102 -21
-85 -47 -46 -98 151 -22 81 -44 151 -51 155 -13 8 -51 193 -51 249 0 47 14 62
60 62 20 0 45 7 56 15 16 13 17 16 4 25 -19 12 -429 13 -449 1 -20 -13 -5 -29
38 -41 74 -20 105 -61 145 -195 79 -260 190 -591 202 -605 7 -9 20 -36 29 -60
27 -77 54 -91 80 -41 15 29 54 158 106 351 16 58 42 139 59 181 16 42 30 83
30 92 0 9 4 18 10 22 8 5 40 -81 40 -109 0 -6 11 -31 24 -56 13 -25 36 -88 51
-140 15 -52 30 -99 35 -105 4 -5 11 -25 15 -43 4 -18 24 -74 44 -125 32 -79
41 -92 61 -92 13 0 28 9 34 20 5 11 18 32 27 46 10 14 34 90 54 169 20 78 47
165 59 193 13 29 33 86 45 127 13 41 26 80 30 85 5 6 17 44 27 85 25 97 68
168 119 197 73 41 56 48 -119 51 -166 3 -201 -5 -162 -34 11 -8 30 -14 42 -14
45 0 57 -26 51 -114 -4 -75 -26 -173 -47 -221 -5 -11 -21 -72 -35 -135 -39
-171 -44 -190 -59 -190 -28 0 -27 -2 -174 425 -17 50 -40 128 -53 174 -28 105
-64 148 -88 103z"/>
<path d="M5441 2831 c-12 -8 -12 -12 -2 -25 8 -9 22 -16 33 -16 25 0 68 -23
91 -48 17 -19 18 -43 15 -384 -3 -419 -1 -407 -88 -428 -56 -14 -67 -24 -49
-46 10 -12 23 -14 53 -9 23 4 194 10 381 13 l340 7 3 73 3 72 -38 0 c-33 0
-44 -6 -83 -51 l-46 -51 -117 7 c-113 7 -118 8 -154 40 l-38 33 0 360 c0 409
-4 390 83 412 57 14 79 29 60 41 -18 12 -429 11 -447 0z"/>
<path d="M6492 2833 c-13 -2 -26 -12 -29 -21 -3 -9 -17 -26 -30 -37 -34 -28
-63 -139 -63 -238 0 -93 25 -177 52 -177 10 0 22 -8 27 -19 6 -10 24 -24 41
-31 16 -7 30 -16 30 -21 0 -5 16 -9 35 -9 19 0 35 -4 35 -10 0 -5 12 -10 26
-10 62 0 154 -24 181 -47 27 -24 28 -28 28 -118 0 -85 -2 -96 -24 -119 -22
-24 -32 -26 -102 -26 -83 0 -204 23 -223 43 -7 7 -18 47 -26 90 l-13 77 -33 0
-34 0 0 -141 0 -141 23 5 c63 16 109 17 182 3 111 -22 152 -20 209 9 27 14 56
25 63 25 7 0 16 8 19 18 3 9 9 26 14 37 16 40 40 145 40 175 0 16 5 30 10 30
6 0 10 16 10 35 0 19 -4 35 -9 35 -4 0 -11 19 -13 43 -7 56 -36 117 -57 117
-9 0 -28 11 -43 25 -15 14 -32 25 -38 25 -5 0 -10 4 -10 8 0 5 -33 14 -72 21
-184 30 -218 41 -218 69 0 6 -5 12 -12 14 -15 5 -14 131 2 136 5 2 10 10 10
18 0 8 7 14 15 14 9 0 18 6 21 14 8 20 86 27 169 15 l75 -11 12 -39 c6 -22 15
-39 20 -39 4 0 8 -11 8 -25 0 -14 4 -25 10 -25 5 0 12 -16 16 -35 5 -30 10
-35 35 -35 l29 0 0 135 0 135 -30 0 c-21 0 -33 -6 -38 -20 -7 -20 -8 -20 -47
2 -33 18 -58 22 -150 24 -60 1 -120 0 -133 -3z"/>
<path d="M7371 2811 c-23 -15 -2 -31 40 -31 l39 0 0 -430 0 -430 -33 0 c-31 0
-57 -14 -57 -32 0 -4 146 -8 324 -8 l324 0 7 43 c13 78 11 230 -2 234 -7 3
-13 -2 -13 -10 0 -8 -6 -17 -14 -20 -8 -3 -17 -20 -21 -37 -4 -17 -14 -34 -22
-37 -8 -3 -23 -25 -34 -49 -10 -24 -25 -44 -32 -44 -8 0 -26 -9 -40 -20 -21
-17 -40 -20 -116 -20 l-91 0 0 205 0 205 40 0 c29 0 42 -5 47 -17 4 -10 24
-36 45 -58 30 -31 38 -47 38 -76 0 -40 14 -59 24 -33 9 25 7 327 -3 343 -7 11
-18 6 -50 -24 -32 -30 -41 -45 -41 -72 l0 -33 -50 0 -50 0 0 210 0 210 89 0
90 0 3 -27 c2 -18 10 -29 22 -32 22 -4 96 -74 96 -90 0 -26 44 -92 59 -89 20
4 25 60 16 186 l-7 92 -306 0 c-169 0 -313 -4 -321 -9z"/>
<path d="M8114 2808 c-4 -7 1 -17 14 -26 12 -8 22 -23 22 -33 0 -10 4 -20 9
-23 13 -8 51 -89 51 -108 0 -9 6 -21 14 -27 7 -6 16 -26 20 -44 4 -17 20 -43
37 -58 23 -19 32 -37 36 -70 3 -28 13 -50 27 -61 20 -16 21 -26 24 -227 l3
-211 -55 0 c-55 0 -81 -15 -55 -31 18 -11 370 -11 388 0 25 16 1 31 -50 31
l-49 0 1 163 c0 89 5 189 10 222 6 33 12 79 15 103 4 27 13 46 25 53 12 6 19
20 19 39 0 18 7 33 19 39 10 6 22 26 25 45 4 18 17 44 30 57 27 29 56 85 56
111 0 11 11 23 26 28 51 20 21 35 -66 35 -87 0 -117 -15 -66 -35 20 -7 26 -16
26 -40 0 -45 -20 -118 -36 -131 -8 -6 -14 -19 -14 -29 0 -25 -29 -80 -62 -118
-15 -18 -29 -43 -29 -55 -1 -18 -2 -19 -6 -4 -3 11 -16 35 -29 54 -13 20 -29
54 -36 77 -6 23 -19 50 -29 61 -10 11 -21 34 -25 50 -4 17 -10 35 -15 40 -4 6
-11 30 -15 52 l-6 42 38 3 c27 2 39 8 39 18 0 13 -26 15 -162 18 -118 2 -164
-1 -169 -10z"/>
<path d="M8871 2811 c-22 -14 -3 -31 35 -31 l34 0 0 -430 0 -430 -34 0 c-38 0
-57 -17 -35 -31 8 -5 154 -9 326 -9 l311 0 7 83 c9 107 3 189 -12 195 -7 2
-13 -3 -13 -12 0 -9 -4 -16 -10 -16 -5 0 -10 -9 -10 -20 0 -10 -6 -23 -14 -27
-19 -11 -66 -80 -66 -98 0 -17 -30 -35 -58 -35 -11 0 -25 -7 -32 -15 -9 -11
-33 -15 -91 -15 l-79 0 0 205 0 205 30 0 c22 0 33 -6 39 -22 5 -13 30 -36 55
-52 43 -27 46 -32 46 -72 0 -44 13 -66 24 -38 9 24 7 327 -3 342 -6 10 -11 10
-21 -4 -8 -9 -24 -20 -37 -25 -19 -7 -23 -16 -23 -54 l0 -45 -55 0 -55 0 0
210 0 210 84 0 85 0 3 -27 c2 -22 9 -29 32 -31 18 -2 30 -11 33 -23 3 -10 9
-19 14 -19 5 0 9 -6 9 -14 0 -8 6 -16 13 -18 6 -3 17 -27 22 -54 10 -43 14
-49 38 -52 l27 -3 0 140 0 141 -302 0 c-167 0 -309 -4 -317 -9z"/>
</g>
</svg>
